<svg width="353" height="213" viewBox="0 0 353 213" fill="none" xmlns="http://www.w3.org/2000/svg">
<g clip-path="url(#clip0_6_32)">
<path d="M261.1 146.29L261.637 146.217L262.198 146.216L262.774 146.293L263.357 146.451L263.935 146.694L264.499 147.022L265.039 147.437L265.544 147.936L266.004 148.519L266.409 149.182L266.749 149.919L267.016 150.725L267.201 151.592L267.297 152.513L267.297 153.476L267.195 154.473L266.988 155.491L266.671 156.518L266.244 157.542L265.705 158.551L265.056 159.529L264.298 160.464L263.436 161.343L262.476 162.151L261.422 162.877L260.285 163.507L259.072 164.03L257.796 164.434L256.466 164.711L255.096 164.851L253.701 164.847L252.293 164.693L250.889 164.385L249.504 163.919L248.154 163.295L246.854 162.513L245.622 161.575L244.472 160.486L243.42 159.252L242.481 157.88L241.668 156.381L240.995 154.765L240.473 153.045L240.114 151.236L239.926 149.354L239.917 147.415L240.093 145.438L240.457 143.441L241.013 141.446L241.761 139.471L242.698 137.538L243.821 135.667L245.124 133.88L246.6 132.197L248.238 130.638L250.027 129.221L251.953 127.966L254 126.889L256.152 126.006L258.391 125.33L260.695 124.875L263.045 124.65L265.418 124.663L267.791 124.921L270.141 125.428L272.445 126.184L274.678 127.188L276.818 128.437L278.84 129.925L280.723 131.642L282.444 133.577L283.984 135.717L285.323 138.046L286.443 140.545L287.329 143.194L287.967 145.971L288.346 148.851L288.455 151.81L288.288 154.821L287.841 157.855L287.112 160.884L286.101 163.879L284.814 166.811L283.257 169.649L281.438 172.365L279.37 174.931L277.068 177.319L274.549 179.503L271.833 181.457L268.942 183.159L265.9 184.588L262.733 185.725L259.469 186.553L256.137 187.059L252.767 187.233L249.391 187.066L246.04 186.553L242.747 185.694L239.544 184.491L236.463 182.948" stroke="white" stroke-width="15" stroke-linecap="round" stroke-linejoin="round"/>
<circle cx="175.757" cy="64" r="20" stroke="white" stroke-width="10"/>
<path d="M63.7567 66C159.435 29.234 213.078 30.0515 308.757 66V80C215.096 44.3472 161.43 44.74 63.7567 80V66Z" fill="white"/>
<path d="M63.7567 38.7519C159.435 1.3345 213.078 2.16652 308.757 38.7519V53C215.096 16.7155 161.43 17.1153 63.7567 53V38.7519Z" fill="white"/>
<path d="M63.7567 77C159.938 97.8931 213.576 97.9003 308.757 77V83C210.535 110.329 156.961 109.576 63.7567 83V77Z" fill="white"/>
<rect x="307.757" y="66" width="17" height="17" fill="white"/>
<rect width="12" height="14.217" transform="matrix(1 0 0 -1 308.757 53)" fill="white"/>
<rect width="14" height="14" transform="matrix(1 0 0 -1 49.7567 53)" fill="white"/>
<rect x="48.7567" y="66" width="21" height="17" fill="white"/>
<rect x="61.561" y="73.4121" width="207.353" height="14.8738" transform="rotate(30 61.561 73.4121)" fill="white"/>
<rect x="58.5512" y="154.298" width="73.6805" height="14.8786" transform="rotate(-100 58.5512 154.298)" fill="white"/>
<path d="M26.7203 130.648C22.4778 129.844 21.1816 124.402 24.606 121.771L56.3281 97.4017C59.2775 95.1358 63.5802 96.7687 64.2838 100.421L76.2567 162.569L80.7504 186.601C81.8256 192.35 73.8457 194.953 71.3241 189.675L45.8485 136.354C45.1621 134.918 43.8328 133.894 42.2686 133.597L26.7203 130.648Z" fill="white"/>
<path d="M48.7567 53.2197C57.5933 53.2197 64.7567 50.0362 64.7567 46.1094C64.7564 42.1827 57.5931 39 48.7567 39C39.9204 39 32.757 42.1827 32.7567 46.1094C32.7567 50.0362 39.9202 53.2197 48.7567 53.2197Z" fill="white"/>
<path d="M324.757 66C333.593 66 340.757 69.8056 340.757 74.5C340.757 79.1944 333.593 83 324.757 83C315.92 83 308.757 79.1944 308.757 74.5C308.757 69.8056 315.92 66 324.757 66Z" fill="white"/>
<path d="M48.7567 66C57.5933 66 64.7567 69.8056 64.7567 74.5C64.7567 79.1944 57.5933 83 48.7567 83C39.9202 83 32.7567 79.1944 32.7567 74.5C32.7567 69.8056 39.9202 66 48.7567 66Z" fill="white"/>
<path d="M320.757 53C329.593 53 336.757 49.8164 336.757 45.8896C336.756 41.963 329.593 38.7803 320.757 38.7803C311.92 38.7803 304.757 41.963 304.757 45.8896C304.757 49.8164 311.92 53 320.757 53Z" fill="white"/>
</g>
<defs>
<clipPath id="clip0_6_32">
<rect width="353" height="213" fill="white"/>
</clipPath>
</defs>
</svg>
